# xmcd
#
# Track frame offsets:
#	150
#	19672
#	37917
#	57731
#	78679
#	97034
#	117512
#	140254
#	157017
#	175965
#	196340
#	224170
#	244363
#	263943
#	282495
#	299995
#	319035
#
# Disc length: 4528 seconds
#
# Revision: 1
# Processed by: cddbd v1.4PL0 Copyright (c) Steve Scherf et al.
# Submitted via: EasyCDDAExtractor 6.0.0.1
#
DISCID=1a11ae11
DTITLE=Various Artist - 이미연의 '연가' 모음
DYEAR=2003
DGENRE=Ballad
TTITLE0=김경호 - 나를 슬프게 하는 사람들
TTITLE1=김민우 - 사랑일뿐야
TTITLE2=김태영 - 혼자만의 사랑
TTITLE3=박상민 - 멀어져간 사람아
TTITLE4=박상민 - 애원
TTITLE5=부활 - 사랑할수록 
TTITLE6=솔리드 - 이 밤의 끝을 잡고
TTITLE7=신성우 - 서시 
TTITLE8=안재욱 - forever
TTITLE9=이지훈 - 왜 하늘은
TTITLE10=조성모 - 가시나무 
TTITLE11=조성모 - for you
TTITLE12=조장혁 - change
TTITLE13=최재훈 - 널 보낸 후에
TTITLE14=터보 - 회상
TTITLE15=GOD - 사랑해 그리고 기억해
TTITLE16=SKY - 영원
EXTD=
EXTT0=
EXTT1=
EXTT2=
EXTT3=
EXTT4=
EXTT5=
EXTT6=
EXTT7=
EXTT8=
EXTT9=
EXTT10=
EXTT11=
EXTT12=
EXTT13=
EXTT14=
EXTT15=
EXTT16=
PLAYORDER=
